<?xml version="1.0" standalone="no"?>
<!DOCTYPE svg PUBLIC "-//W3C//DTD SVG 20010904//EN"
 "http://www.w3.org/TR/2001/REC-SVG-20010904/DTD/svg10.dtd">
<svg version="1.0" xmlns="http://www.w3.org/2000/svg"
 width="1024.000000pt" height="1024.000000pt" viewBox="0 0 1024.000000 1024.000000"
 preserveAspectRatio="xMidYMid meet">

<g transform="translate(0.000000,1024.000000) scale(0.100000,-0.100000)"
fill="#000000" stroke="none">
<path d="M3685 8624 c-195 -47 -374 -194 -461 -379 -64 -135 -65 -158 -61
-870 3 -553 5 -647 19 -693 89 -291 339 -492 635 -509 l93 -6 0 -309 c0 -339
2 -353 60 -383 30 -16 73 -19 102 -7 9 4 59 41 110 83 51 42 243 198 425 347
l333 271 712 3 713 3 80 27 c231 79 397 256 456 486 18 70 19 115 19 714 0
709 -1 717 -65 853 -87 183 -244 313 -439 364 -79 21 -94 21 -1375 20 -1095
-1 -1305 -3 -1356 -15z m2664 -198 c176 -48 310 -181 356 -357 22 -83 22
-1239 0 -1324 -35 -134 -136 -260 -253 -316 -120 -58 -131 -59 -898 -59 l-700
0 -225 -186 c-123 -102 -283 -235 -356 -295 -72 -60 -138 -112 -147 -115 -14
-6 -16 24 -16 295 l0 301 -137 0 c-162 0 -252 17 -342 62 -81 41 -172 130
-210 206 -58 115 -61 154 -61 774 0 612 3 647 57 758 35 73 142 178 216 215
114 55 67 53 1412 54 1055 1 1258 -1 1304 -13z"/>
<path d="M4214 7541 c-109 -66 -96 -232 21 -276 176 -68 303 177 143 275 -43
26 -122 27 -164 1z"/>
<path d="M4975 7545 c-121 -65 -101 -246 32 -285 85 -26 169 20 192 103 17 59
2 113 -44 157 -30 29 -43 34 -92 37 -40 3 -67 -1 -88 -12z"/>
<path d="M5720 7541 c-39 -21 -80 -89 -80 -133 0 -145 195 -213 280 -97 41 57
46 101 18 157 -13 26 -38 57 -57 69 -43 29 -113 30 -161 4z"/>
<path d="M2315 5950 c-231 -27 -475 -114 -660 -237 -371 -248 -582 -618 -627
-1098 -18 -203 15 -452 94 -694 72 -218 169 -393 413 -743 72 -104 80 -134 79
-303 -2 -157 -15 -236 -109 -622 -59 -243 -63 -269 -40 -312 32 -63 1 -61 894
-61 896 0 860 -2 896 63 18 34 18 43 6 184 -7 81 -16 184 -21 228 -5 44 -11
114 -15 156 l-6 76 168 5 c139 4 179 9 233 27 187 65 298 189 350 396 17 65
48 275 62 419 3 26 10 31 93 61 166 59 218 95 240 165 20 65 8 98 -142 384
-259 494 -239 449 -247 556 -27 342 -142 644 -329 865 -66 78 -196 195 -272
246 -148 99 -352 182 -542 220 -123 24 -386 34 -518 19z m491 -278 c243 -56
403 -141 567 -301 207 -201 316 -457 347 -812 11 -128 23 -169 74 -262 115
-207 285 -542 279 -548 -5 -4 -53 -21 -107 -38 -157 -49 -168 -61 -185 -215
-22 -195 -51 -373 -71 -439 -38 -123 -111 -187 -235 -207 -33 -5 -148 -10
-256 -10 l-197 0 -30 -28 c-17 -16 -34 -42 -38 -58 -4 -16 4 -155 20 -314 14
-157 26 -288 26 -292 0 -5 -281 -8 -625 -8 -699 0 -637 -7 -615 70 13 45 54
223 86 375 34 161 43 360 20 468 -23 112 -67 209 -142 312 -198 273 -290 441
-359 655 -89 274 -100 589 -30 834 122 424 452 724 905 820 114 24 123 24 305
21 129 -2 192 -7 261 -23z"/>
<path d="M7550 5953 c-504 -51 -914 -323 -1128 -748 -90 -181 -137 -357 -161
-610 l-9 -100 -184 -350 c-101 -192 -190 -365 -197 -382 -21 -52 -7 -114 37
-163 32 -35 56 -48 167 -90 l130 -49 7 -68 c15 -135 39 -299 54 -368 36 -157
123 -284 243 -355 100 -60 194 -80 369 -80 l144 0 -6 -47 c-3 -27 -13 -124
-21 -218 -9 -93 -20 -205 -25 -248 -12 -97 1 -142 49 -174 l34 -23 817 0 c563
0 827 3 848 11 37 13 72 64 72 106 0 17 -27 140 -59 274 -87 356 -103 439
-108 585 -7 168 5 212 92 337 164 234 232 342 294 468 155 313 227 649 201
948 -30 357 -141 625 -363 880 -211 242 -568 421 -919 460 -90 10 -297 12
-378 4z m405 -269 c170 -29 341 -96 490 -191 98 -63 268 -239 328 -339 305
-513 224 -1147 -223 -1739 -144 -191 -180 -287 -187 -495 -6 -170 10 -285 82
-577 25 -101 45 -187 45 -193 0 -7 -211 -10 -625 -10 l-625 0 0 25 c0 14 12
143 26 288 28 286 26 313 -22 358 -25 24 -29 24 -257 30 -247 6 -284 12 -352
58 -86 58 -118 151 -159 466 -15 110 -29 212 -32 227 -9 43 -59 84 -127 103
-66 18 -157 54 -157 62 0 3 72 141 160 308 88 166 167 318 175 338 8 20 20 91
25 159 25 299 102 515 250 707 163 211 388 345 681 406 141 29 365 33 504 9z"/>
</g>
</svg>
