<?xml version="1.0" standalone="no"?>
<!DOCTYPE svg PUBLIC "-//W3C//DTD SVG 20010904//EN"
 "http://www.w3.org/TR/2001/REC-SVG-20010904/DTD/svg10.dtd">
<svg version="1.0" xmlns="http://www.w3.org/2000/svg"
 width="738.000000pt" height="738.000000pt" viewBox="0 0 738.000000 738.000000"
 preserveAspectRatio="xMidYMid meet">

<g transform="translate(0.000000,738.000000) scale(0.100000,-0.100000)"
fill="#000000" stroke="none">
<path d="M117 7263 c-4 -3 -7 -453 -7 -1000 l0 -993 1000 0 1000 0 0 1000 0
1000 -993 0 c-547 0 -997 -3 -1000 -7z m1713 -998 l0 -715 -715 0 -715 0 0
715 0 715 715 0 715 0 0 -715z"/>
<path d="M680 6265 l0 -435 435 0 435 0 0 435 0 435 -435 0 -435 0 0 -435z"/>
<path d="M2985 7257 c-3 -7 -4 -134 -3 -282 l3 -270 138 -3 137 -3 0 286 0
285 -135 0 c-100 0 -137 -3 -140 -13z"/>
<path d="M3550 7125 l0 -146 143 3 142 3 3 143 3 142 -146 0 -145 0 0 -145z"/>
<path d="M4698 7128 l-3 -143 -137 -3 -138 -3 0 -139 0 -140 -150 0 -150 0 0
-145 0 -145 -140 0 -140 0 0 145 0 145 -145 0 -145 0 0 -285 0 -285 285 0 285
0 0 -150 0 -150 -430 0 -430 0 0 -140 0 -140 -140 0 -140 0 2 288 3 287 138 3
137 3 0 139 0 140 -425 0 -425 0 0 -140 0 -139 138 -3 137 -3 3 -147 3 -148
-141 0 -140 0 0 -280 0 -280 140 0 141 0 -3 -147 -3 -148 -427 -3 -428 -2 0
-140 0 -140 -140 0 -140 0 0 140 0 140 -720 0 -721 0 3 -137 3 -138 428 -3
427 -2 0 -145 0 -145 -427 -2 -428 -3 -3 -137 -3 -138 431 0 430 0 0 140 0
140 140 0 140 0 0 -140 0 -139 147 -3 148 -3 3 -142 3 -143 139 0 140 0 0
-145 0 -145 140 0 140 0 0 -140 0 -140 -427 -2 -428 -3 -3 -427 -2 -428 430 0
430 0 0 140 0 140 -280 0 -280 0 0 140 0 140 280 0 280 0 0 150 0 150 288 -2
287 -3 3 -148 3 -147 -141 0 -140 0 0 -570 0 -570 140 0 140 0 0 -145 0 -145
-140 0 -140 0 0 -720 0 -720 425 0 425 0 0 150 0 150 -140 0 -140 0 0 140 0
140 140 0 139 0 3 147 3 148 288 3 287 2 0 140 0 140 288 -2 287 -3 3 -137 3
-137 -148 -3 -148 -3 -3 -147 -3 -148 151 0 150 0 0 150 0 150 140 0 140 0 0
140 0 140 288 -2 287 -3 3 -137 3 -138 139 0 140 0 0 140 0 140 145 0 145 0 0
-140 0 -140 140 0 140 0 0 -150 0 -150 -285 0 -285 0 0 -290 0 -290 863 2 862
3 0 575 0 575 -287 3 -288 2 0 140 0 140 290 0 290 0 0 285 0 285 -440 0 -440
0 0 -140 0 -141 -137 3 -138 3 0 140 0 140 138 3 137 3 0 144 0 145 150 0 150
0 0 140 0 140 -150 0 -150 0 0 -140 0 -140 -140 0 -140 0 0 280 0 280 140 0
140 0 0 290 0 290 150 0 150 0 0 -290 0 -290 140 0 140 0 0 -140 0 -141 148 3
147 3 0 285 0 285 -147 3 -148 3 0 139 0 140 150 0 150 0 -2 428 -3 427 -147
3 -148 3 0 284 0 285 -140 0 -140 0 0 -425 0 -425 140 0 141 0 -3 -142 -3
-143 -287 -3 -288 -2 0 -145 0 -145 -140 0 -140 0 0 145 0 144 -137 3 -138 3
0 140 0 140 278 3 277 2 0 140 0 140 -280 0 -280 0 0 285 0 285 -145 0 -145 0
0 -285 0 -285 -145 0 -145 0 0 285 0 285 -145 0 -145 0 0 290 0 290 -140 0
-140 0 0 140 0 140 140 0 140 0 0 150 0 150 -140 0 -140 0 0 -150 0 -150 -140
0 -140 0 0 435 0 435 280 0 280 0 -2 283 -3 282 -137 3 -137 3 -3 -143z m-278
-1438 l0 -140 140 0 140 0 0 -290 0 -290 140 0 140 0 0 -140 0 -140 -140 0
-140 0 0 -145 0 -145 -290 0 -290 0 0 145 0 144 148 3 147 3 3 138 3 137 -291
0 -290 0 0 -140 0 -140 -145 0 -145 0 0 -145 0 -145 145 0 145 0 0 -140 0
-140 140 0 140 0 0 -145 0 -146 -137 3 -138 3 -3 143 -3 142 -144 0 -145 0 0
-290 0 -290 145 0 145 0 0 -140 0 -140 -430 0 -430 0 0 140 0 140 140 0 140 0
0 145 0 145 -425 0 -425 0 0 -145 0 -145 -150 0 -150 0 0 145 0 145 -140 0
-141 0 3 143 3 142 138 3 137 3 0 -146 0 -145 150 0 150 0 0 430 0 430 285 0
285 0 0 140 0 140 140 0 140 0 0 -140 0 -140 145 0 145 0 0 290 0 290 -145 0
-145 0 0 140 0 141 143 -3 142 -3 3 -137 3 -138 144 0 145 0 0 140 0 140 140
0 140 0 0 140 0 140 150 0 150 0 0 -140z m-1440 -280 l0 -140 -145 0 -145 0 0
140 0 140 145 0 145 0 0 -140z m-1430 -865 l0 -145 -150 0 -150 0 0 145 0 145
150 0 150 0 0 -145z m560 0 l0 -145 -140 0 -140 0 0 145 0 145 140 0 140 0 0
-145z m2868 -717 l2 -288 -140 0 -140 0 0 -140 0 -140 140 0 140 0 0 -290 0
-290 -140 0 -140 0 0 -140 0 -140 -140 0 -140 0 0 -145 0 -144 138 -3 137 -3
3 -287 2 -288 -575 0 -575 0 0 145 0 144 -142 3 -143 3 -3 138 -3 137 -284 0
-285 0 0 430 0 430 145 0 145 0 0 -280 0 -280 283 -2 282 -3 3 -142 3 -142
142 -3 142 -3 5 -140 5 -140 285 0 285 0 3 137 3 137 -148 3 -148 3 -3 288 -2
287 -285 0 -285 0 0 140 0 140 285 0 285 0 0 -140 0 -140 290 0 290 0 0 290 0
290 -290 0 -290 0 0 140 0 140 150 0 150 0 0 145 0 144 138 3 137 3 3 143 3
143 137 -3 137 -3 3 -287z m577 147 l0 -140 -140 0 -140 0 -3 129 c-1 72 0
136 2 143 4 11 36 13 143 11 l138 -3 0 -140z m3 -578 l3 -138 -143 3 -143 3
-3 124 c-1 69 0 131 2 138 4 11 36 13 143 11 l138 -3 3 -138z m572 3 l0 -140
-140 0 -140 0 0 140 0 140 140 0 140 0 0 -140z m-572 -577 l-3 -138 -140 0
-140 0 -3 138 -3 137 146 0 146 0 -3 -137z m292 -858 l0 -435 -435 0 -435 0 0
435 0 435 435 0 435 0 0 -435z m860 -290 l0 -145 -150 0 -150 0 0 -140 0 -140
-140 0 -141 0 3 138 3 137 138 3 137 3 0 144 0 145 150 0 150 0 0 -145z
m-3730 -565 l0 -140 -145 0 -145 0 0 140 0 140 145 0 145 0 0 -140z m4010
-430 l0 -290 -290 0 -290 0 0 140 0 140 150 0 150 0 0 150 0 150 140 0 140 0
0 -290z"/>
<path d="M4120 5410 l0 -140 150 0 150 0 0 140 0 140 -150 0 -150 0 0 -140z"/>
<path d="M2980 4405 l0 -285 140 0 140 0 0 285 0 285 -140 0 -140 0 0 -285z"/>
<path d="M5280 1960 l0 -141 138 3 137 3 3 138 3 137 -141 0 -140 0 0 -140z"/>
<path d="M5280 6270 l0 -1000 1005 0 1005 0 -2 998 -3 997 -1002 3 -1003 2 0
-1000z m1710 -5 l0 -715 -715 0 -715 0 0 715 0 715 715 0 715 0 0 -715z"/>
<path d="M5850 6265 l0 -435 430 0 430 0 0 435 0 435 -430 0 -430 0 0 -435z"/>
<path d="M2410 6840 l0 -141 138 3 137 3 3 138 3 137 -141 0 -140 0 0 -140z"/>
<path d="M6132 4833 l3 -138 138 -3 137 -3 0 141 0 140 -140 0 -141 0 3 -137z"/>
<path d="M398 3688 l-3 -143 -140 -5 -140 -5 0 -565 0 -565 140 0 140 0 3 428
2 427 140 0 140 0 0 -150 0 -150 145 0 145 0 0 150 0 150 -145 0 -145 0 0 140
0 140 285 0 285 0 0 145 0 145 -425 0 -424 0 -3 -142z"/>
<path d="M112 1098 l3 -1003 998 -3 997 -2 0 1005 0 1005 -1000 0 -1000 0 2
-1002z m1718 7 l0 -715 -715 0 -715 0 0 715 0 715 715 0 715 0 0 -715z"/>
<path d="M680 1100 l0 -430 435 0 435 0 0 430 0 430 -435 0 -435 0 0 -430z"/>
<path d="M4700 530 l0 -140 285 0 285 0 0 140 0 140 -285 0 -285 0 0 -140z"/>
<path d="M3550 240 l0 -150 433 2 432 3 3 148 3 147 -436 0 -435 0 0 -150z"/>
</g>
</svg>
