<?xml version="1.0" standalone="no"?>
<!DOCTYPE svg PUBLIC "-//W3C//DTD SVG 20010904//EN"
 "http://www.w3.org/TR/2001/REC-SVG-20010904/DTD/svg10.dtd">
<svg version="1.0" xmlns="http://www.w3.org/2000/svg"
 width="1024.000000pt" height="1024.000000pt" viewBox="0 0 1024.000000 1024.000000"
 preserveAspectRatio="xMidYMid meet">

<g transform="translate(0.000000,1024.000000) scale(0.100000,-0.100000)"
fill="#000000" stroke="none">
<path d="M5390 7939 c-374 -34 -705 -145 -981 -331 -320 -216 -539 -570 -539
-873 0 -137 34 -213 125 -275 156 -107 401 -57 501 102 14 22 46 103 71 181
70 218 135 334 260 463 113 119 291 219 462 260 89 22 349 30 449 14 184 -30
325 -94 428 -195 113 -111 159 -224 157 -385 -2 -212 -85 -384 -270 -561 -129
-123 -271 -216 -552 -361 -475 -245 -663 -368 -857 -564 -208 -208 -359 -485
-438 -803 -89 -352 -49 -532 138 -618 54 -25 72 -28 161 -27 92 0 105 2 167
32 121 59 163 128 209 348 16 80 41 181 55 225 62 197 182 398 317 529 160
157 294 242 712 457 503 259 693 404 888 682 99 139 170 310 202 486 21 110
16 327 -9 420 -111 405 -521 696 -1098 780 -130 19 -421 27 -558 14z"/>
<path d="M3167 7830 c-32 -26 -49 -79 -37 -121 10 -34 34 -61 221 -256 l127
-133 49 0 c72 1 113 42 113 114 0 41 -21 66 -227 279 -131 135 -134 137 -177
137 -28 0 -52 -7 -69 -20z"/>
<path d="M2803 7059 c-46 -14 -73 -53 -73 -106 0 -38 5 -50 34 -79 l34 -34
246 0 c268 0 291 4 314 55 22 49 15 100 -19 134 l-31 31 -216 0 c-119 0 -226
2 -237 4 -11 3 -34 0 -52 -5z"/>
<path d="M6868 5521 c-29 -26 -33 -35 -33 -80 0 -41 5 -55 25 -75 28 -28 453
-196 495 -196 78 0 134 68 115 138 -13 52 -29 64 -140 107 -398 153 -407 155
-462 106z"/>
<path d="M6495 5213 c-51 -27 -70 -76 -52 -130 14 -40 302 -386 335 -402 76
-37 162 10 162 89 0 55 -6 65 -134 215 -62 72 -129 151 -151 177 -54 66 -103
82 -160 51z"/>
<path d="M4218 3615 c-310 -85 -444 -417 -270 -669 85 -124 293 -203 465 -177
264 41 450 273 409 512 -28 165 -136 282 -309 334 -59 18 -230 18 -295 0z"/>
</g>
</svg>
