<?xml version="1.0" standalone="no"?>
<!DOCTYPE svg PUBLIC "-//W3C//DTD SVG 20010904//EN"
 "http://www.w3.org/TR/2001/REC-SVG-20010904/DTD/svg10.dtd">
<svg version="1.0" xmlns="http://www.w3.org/2000/svg"
 width="752.000000pt" height="465.000000pt" viewBox="0 0 752.000000 465.000000"
 preserveAspectRatio="xMidYMid meet">

<g transform="translate(0.000000,465.000000) scale(0.100000,-0.100000)"
fill="#000000" stroke="none">
<path d="M620 4430 c-113 -20 -238 -92 -306 -177 -47 -58 -94 -157 -110 -232
-10 -50 -14 -163 -14 -478 0 -454 5 -502 60 -622 64 -136 231 -258 385 -281
46 -7 476 -10 1280 -8 l1210 3 65 23 c120 43 210 115 280 223 74 114 73 111
77 613 3 312 1 471 -7 519 -17 97 -70 198 -144 271 -74 73 -138 110 -242 136
-75 19 -112 20 -1283 19 -663 -1 -1226 -5 -1251 -9z m2560 -171 c82 -39 144
-99 182 -177 l33 -67 0 -480 0 -480 -28 -58 c-37 -74 -110 -147 -184 -184
l-58 -28 -1229 -3 c-1368 -3 -1282 -7 -1390 66 -31 21 -72 60 -92 87 -72 101
-69 71 -72 578 -3 520 -3 523 71 623 52 70 105 109 184 134 55 18 111 19 1293
17 l1235 -2 55 -26z"/>
<path d="M4323 4406 c-126 -31 -263 -134 -320 -243 -61 -114 -63 -135 -63
-630 0 -488 2 -513 58 -617 36 -68 145 -177 209 -210 114 -57 70 -56 1407 -56
1354 0 1286 -3 1409 62 75 40 172 144 207 223 50 109 52 135 48 635 l-3 465
-33 70 c-66 138 -169 235 -307 287 l-60 23 -1250 2 c-977 1 -1261 -1 -1302
-11z"/>
<path d="M591 2054 c-198 -53 -360 -228 -391 -424 -5 -37 -10 -245 -10 -481 0
-457 4 -500 66 -620 57 -113 185 -217 320 -259 65 -20 84 -20 1285 -20 841 0
1234 3 1271 11 131 27 259 118 338 241 74 114 74 109 78 612 4 495 -1 552 -50
655 -39 82 -158 204 -238 243 -124 61 -60 58 -1395 57 -1031 0 -1228 -3 -1274
-15z m2589 -166 c71 -35 139 -103 182 -181 l33 -62 0 -490 0 -490 -27 -51
c-36 -69 -112 -145 -179 -181 l-54 -28 -1260 0 -1260 0 -60 29 c-74 37 -144
108 -182 183 l-28 58 0 485 c0 478 0 486 22 532 31 67 67 112 126 155 106 78
3 73 1392 70 l1240 -2 55 -27z"/>
<path d="M4300 2047 c-188 -64 -315 -207 -354 -399 -23 -109 -23 -878 -1 -983
43 -201 202 -361 405 -404 41 -9 364 -11 1290 -9 l1235 3 57 22 c173 66 279
178 333 354 14 46 17 116 20 464 4 513 0 568 -54 679 -65 135 -196 244 -336
281 -52 13 -216 15 -1295 15 l-1235 -1 -65 -22z m2535 -129 c138 -29 252 -133
290 -265 14 -47 16 -118 13 -516 l-3 -462 -28 -58 c-37 -74 -110 -147 -184
-184 l-58 -28 -1255 0 -1255 0 -57 27 c-74 34 -152 112 -186 186 l-27 57 0
485 0 485 28 58 c58 116 174 203 292 217 101 12 2373 10 2430 -2z"/>
</g>
</svg>
