<?xml version="1.0" standalone="no"?>
<!DOCTYPE svg PUBLIC "-//W3C//DTD SVG 20010904//EN"
 "http://www.w3.org/TR/2001/REC-SVG-20010904/DTD/svg10.dtd">
<svg version="1.0" xmlns="http://www.w3.org/2000/svg"
 width="1024.000000pt" height="1024.000000pt" viewBox="0 0 1024.000000 1024.000000"
 preserveAspectRatio="xMidYMid meet">

<g transform="translate(0.000000,1024.000000) scale(0.100000,-0.100000)"
fill="#000000" stroke="none">
<path d="M1572 8014 c-147 -73 -177 -259 -62 -374 64 -65 155 -86 251 -60 48
13 118 75 140 124 23 51 25 143 3 194 -51 122 -209 178 -332 116z m150 -121
c22 -20 24 -66 2 -87 -35 -36 -104 -7 -104 42 0 54 62 81 102 45z"/>
<path d="M8486 8030 c-79 -25 -140 -94 -158 -181 -30 -147 81 -279 237 -279
75 0 128 24 176 77 47 52 62 99 57 179 -5 78 -40 134 -110 177 -51 32 -147 45
-202 27z m110 -128 c33 -22 34 -83 1 -104 -38 -24 -97 6 -97 50 0 47 58 80 96
54z"/>
<path d="M1566 7306 c-3 -122 -8 -390 -11 -596 -28 -1890 -36 -2428 -41 -3107
l-7 -781 39 -17 c54 -24 205 -25 258 -2 l39 17 -7 1228 c-3 675 -13 1666 -21
2202 -8 536 -15 1044 -15 1129 0 142 -1 153 -17 146 -48 -20 -110 -25 -160
-12 l-51 13 -6 -220z"/>
<path d="M1833 7492 c41 -257 83 -850 73 -1019 l-7 -101 130 -72 c313 -171
762 -332 1203 -430 412 -91 855 -156 1318 -191 224 -18 1045 -18 1255 -1 902
73 1561 220 2116 472 112 51 202 98 389 203 l35 20 1 266 c1 270 7 361 46 689
11 100 18 185 15 189 -4 3 -91 -19 -194 -50 -448 -135 -725 -202 -1209 -291
-441 -81 -770 -121 -1304 -157 -249 -18 -952 -14 -1230 5 -858 61 -1699 217
-2529 470 l-113 35 5 -37z m752 -252 c1240 -297 2434 -376 3675 -244 257 27
265 28 554 73 401 63 939 181 1296 285 l85 24 -30 -24 c-119 -99 -324 -211
-473 -259 -46 -15 -81 -29 -80 -31 5 -4 167 21 230 35 61 14 255 87 287 107
27 18 26 15 -28 -61 -62 -88 -141 -174 -206 -222 -35 -26 -62 -49 -60 -51 4
-5 82 40 158 90 72 49 175 145 212 198 15 22 30 39 32 37 8 -9 -94 -284 -148
-396 -121 -253 -248 -403 -459 -544 -30 -20 -51 -37 -47 -37 5 0 68 29 140 65
150 73 272 160 370 264 l67 71 0 -67 c0 -38 3 -84 6 -104 l6 -36 -118 -65
c-204 -111 -350 -174 -609 -260 -513 -170 -1067 -272 -1730 -319 -258 -19
-915 -16 -1180 5 -582 46 -1178 154 -1660 301 -66 21 -141 43 -166 51 -129 39
-549 228 -612 276 -15 11 -18 31 -20 125 -1 62 1 109 4 105 119 -148 240 -246
411 -330 123 -61 178 -85 178 -78 0 2 -35 26 -77 52 -188 116 -385 374 -495
647 -32 81 -99 280 -94 284 2 2 11 -9 21 -24 58 -89 205 -215 330 -282 59 -32
59 -32 25 -4 -80 64 -173 160 -221 230 -53 77 -58 96 -17 69 30 -20 145 -63
230 -87 69 -19 259 -51 266 -44 2 2 -36 15 -85 30 -152 47 -260 103 -420 218
-46 33 -83 60 -83 61 0 2 55 -12 123 -31 67 -18 253 -65 412 -103z"/>
<path d="M8446 7237 c-12 -624 -27 -2066 -33 -3214 l-6 -1203 39 -17 c53 -23
204 -22 258 1 l38 17 -6 467 c-3 257 -8 847 -11 1312 -3 465 -7 978 -10 1140
-3 162 -10 630 -16 1040 -7 410 -13 746 -15 748 -1 2 -12 -2 -24 -8 -28 -15
-146 -16 -181 -2 l-27 11 -6 -292z"/>
<path d="M2895 3166 c-77 -21 -203 -96 -472 -277 l-52 -35 -84 27 c-70 24
-222 50 -357 61 l-35 3 -3 -87 -3 -86 -38 -16 c-107 -42 -256 -41 -355 2 l-46
21 0 86 c0 83 -1 85 -22 81 -13 -3 -69 -10 -125 -16 -114 -12 -262 -49 -326
-81 -174 -87 -108 -182 170 -244 157 -35 275 -45 523 -45 302 0 474 20 648 75
126 40 182 98 147 152 -17 25 -17 27 6 44 13 10 83 53 154 95 113 67 375 249
375 260 0 7 -24 3 -105 -20z"/>
<path d="M7209 3176 c15 -18 246 -166 361 -231 47 -26 115 -68 152 -92 57 -39
66 -48 58 -63 -50 -94 97 -171 410 -215 146 -20 565 -20 725 0 409 53 559 167
355 270 -87 44 -326 95 -447 95 l-33 0 0 -81 0 -80 -42 -19 c-74 -32 -167 -44
-250 -30 -40 7 -90 21 -110 31 l-38 19 0 85 c0 83 -1 85 -22 81 -13 -3 -54 -8
-93 -11 -94 -8 -247 -40 -314 -64 l-54 -20 -181 111 c-99 61 -206 128 -237
149 -36 24 -85 45 -137 58 -98 26 -119 27 -103 7z"/>
<path d="M3219 3045 l-104 -94 -184 -1 -183 0 -102 -87 c-55 -47 -105 -91
-111 -96 -6 -6 76 -7 228 -3 l238 6 103 90 103 90 194 0 193 0 -49 -52 c-28
-29 -66 -70 -85 -90 l-34 -38 250 0 249 0 68 90 67 90 195 0 c107 0 195 -2
195 -3 0 -2 -18 -41 -40 -86 -22 -45 -40 -84 -40 -86 0 -3 117 -5 259 -5 l259
0 12 73 c6 39 14 80 16 90 5 15 22 17 185 17 l179 0 27 -90 27 -90 253 0 c139
0 253 2 253 5 0 3 -20 41 -45 86 -25 45 -45 83 -45 85 0 2 85 4 189 4 l189 0
85 -90 85 -90 248 0 248 0 -95 90 -94 89 195 0 195 1 95 -75 c52 -42 105 -82
116 -91 17 -12 70 -16 260 -21 l239 -6 -127 97 -128 96 -177 0 -178 0 -115 95
-115 95 -225 0 -225 -1 93 -90 c50 -49 92 -92 92 -95 0 -2 -84 -3 -187 -2
l-186 3 -81 92 -81 91 -213 1 -213 1 51 -95 51 -95 -188 0 -189 0 -26 68 c-15
38 -30 80 -33 95 l-7 27 -203 0 -202 0 -24 -92 -24 -93 -192 -3 -192 -2 30 72
c17 40 35 83 40 96 l9 22 -213 0 -212 -1 -69 -94 -69 -95 -190 0 c-180 0 -189
1 -176 18 8 9 45 52 83 95 l68 77 -219 0 -219 0 -105 -95z"/>
</g>
</svg>
