<?xml version="1.0" standalone="no"?>
<!DOCTYPE svg PUBLIC "-//W3C//DTD SVG 20010904//EN"
 "http://www.w3.org/TR/2001/REC-SVG-20010904/DTD/svg10.dtd">
<svg version="1.0" xmlns="http://www.w3.org/2000/svg"
 width="1024.000000pt" height="1024.000000pt" viewBox="0 0 1024.000000 1024.000000"
 preserveAspectRatio="xMidYMid meet">

<g transform="translate(0.000000,1024.000000) scale(0.100000,-0.100000)"
fill="#000000" stroke="none">
<path d="M3570 8791 c-45 -14 -84 -39 -116 -73 -54 -57 -69 -95 -69 -178 0
-83 15 -121 69 -178 72 -78 197 -104 294 -62 58 25 113 80 138 137 25 58 23
158 -5 216 -53 110 -195 173 -311 138z"/>
<path d="M4680 8374 c-144 -18 -332 -59 -464 -100 -61 -19 -148 -44 -194 -57
l-83 -22 -39 22 -40 21 0 -1102 c0 -607 3 -1144 7 -1195 l6 -92 30 56 c90 166
305 318 539 380 277 72 509 49 818 -82 391 -165 644 -226 945 -227 246 -1 419
32 702 135 87 32 385 168 400 183 2 2 -8 28 -22 59 -54 116 -68 293 -40 481
38 254 138 547 404 1184 28 67 51 127 51 132 0 5 -24 -8 -52 -30 -107 -81
-259 -143 -438 -179 -156 -32 -257 -40 -435 -36 -271 6 -392 37 -656 166 -279
138 -527 234 -702 273 -199 46 -517 58 -737 30z m467 -98 c7 -7 -25 -157 -69
-325 l-33 -125 -210 -1 c-170 -1 -227 -5 -297 -21 l-88 -20 0 21 c0 31 75 321
100 388 12 32 28 61 35 63 7 3 59 11 116 19 99 14 433 14 446 1z m956 -316
c81 -40 147 -76 147 -79 0 -22 -126 -439 -135 -449 -7 -8 -191 65 -340 136
-88 41 -162 77 -164 79 -6 5 72 197 137 334 l54 116 76 -32 c43 -18 143 -65
225 -105z m1388 -61 c-6 -13 -38 -96 -72 -184 -33 -88 -70 -168 -80 -177 -28
-24 -217 -95 -329 -123 -91 -23 -291 -57 -297 -51 -3 3 41 113 131 322 l48
112 77 7 c138 12 399 69 491 108 19 8 36 13 38 12 1 -1 -2 -13 -7 -26z m-2246
-126 c103 -27 183 -54 293 -100 48 -20 61 -30 56 -42 -26 -64 -105 -278 -123
-333 -13 -37 -26 -70 -29 -72 -4 -2 -53 13 -109 34 -101 38 -245 73 -356 86
-35 4 -57 12 -57 19 0 11 53 206 102 374 l22 73 50 -6 c28 -4 96 -19 151 -33z
m-809 -20 c-11 -37 -26 -113 -51 -263 -14 -85 -27 -165 -30 -176 -4 -17 -29
-32 -110 -64 -58 -23 -148 -70 -200 -105 l-95 -62 0 241 0 241 103 57 c56 31
140 71 187 88 47 18 101 38 120 45 51 20 83 19 76 -2z m1804 -362 c130 -30
245 -43 355 -39 63 2 99 -1 98 -7 -1 -5 -35 -99 -75 -209 l-73 -198 -180 5
c-142 4 -201 10 -282 29 l-102 25 -15 -41 c-22 -61 -73 -231 -92 -311 -9 -38
-20 -73 -23 -77 -8 -9 -190 57 -306 112 -205 96 -244 110 -249 92 -25 -83 -58
-229 -71 -318 -9 -60 -18 -110 -20 -112 -2 -2 -51 10 -109 28 -125 38 -240 59
-319 60 l-59 0 6 38 c3 20 10 75 16 122 11 86 33 205 51 272 l9 37 58 -6 c93
-8 251 -42 346 -74 49 -16 92 -26 96 -22 4 4 35 94 69 198 34 105 65 196 70
204 8 12 38 2 168 -56 207 -92 361 -149 372 -137 5 5 37 97 71 204 34 107 65
199 67 203 3 4 12 6 21 3 10 -3 55 -14 102 -25z m-1335 -58 c-4 -10 -31 -111
-59 -225 l-51 -208 -96 0 c-108 0 -222 -19 -331 -54 -40 -14 -74 -23 -75 -23
-4 5 60 453 67 460 9 10 102 35 195 52 39 7 135 13 214 14 133 1 143 0 136
-16z m2290 -240 c-15 -38 -64 -282 -70 -348 l-7 -70 -77 -33 c-160 -68 -315
-112 -479 -137 -56 -8 -105 -15 -108 -15 -14 0 31 219 77 377 l21 71 82 12
c136 19 291 57 407 100 61 22 119 45 128 50 25 14 34 12 26 -7z m-2911 -305
c-20 -124 -54 -386 -54 -413 0 -32 -4 -37 -59 -64 -48 -25 -135 -84 -208 -143
-10 -8 -13 37 -13 219 l0 229 77 55 c75 53 227 138 249 138 6 1 10 -9 8 -21z
m1668 -262 c128 -33 268 -49 388 -44 l100 4 -6 -121 c-5 -113 6 -221 30 -276
6 -14 -7 -18 -96 -29 -155 -19 -336 -6 -495 36 l-63 17 0 71 c0 104 34 366 47
366 1 0 44 -11 95 -24z"/>
<path d="M3536 7072 c2 -636 4 -2047 4 -3134 l0 -1978 27 -17 c39 -26 158 -25
196 1 l27 18 -2 1993 c-2 1527 -6 1995 -15 2006 -9 11 -13 236 -15 919 -2 498
-4 1005 -6 1127 l-3 222 -37 -7 c-48 -9 -109 -9 -148 0 l-31 7 3 -1157z"/>
<path d="M7590 6379 c-130 -114 -480 -305 -680 -373 -277 -93 -579 -126 -840
-92 -90 12 -305 56 -359 73 -14 4 -14 3 -1 -6 25 -18 250 -90 350 -111 138
-30 372 -37 518 -16 339 50 630 181 891 402 80 67 171 155 161 154 -3 -1 -21
-15 -40 -31z"/>
<path d="M3280 2053 c-226 -22 -431 -65 -534 -112 -63 -28 -116 -79 -116 -110
0 -50 108 -112 270 -156 306 -81 1017 -116 1617 -80 208 13 529 49 542 60 5 6
-492 -5 -778 -16 -256 -10 -352 -7 -194 6 233 18 424 55 506 96 53 27 97 67
97 90 0 31 -53 82 -115 110 -112 50 -336 96 -567 114 l-88 7 0 -67 c0 -60 -3
-69 -28 -95 -58 -58 -263 -77 -395 -36 -77 23 -87 37 -87 123 l0 73 -47 -2
c-27 0 -64 -3 -83 -5z"/>
</g>
</svg>
