<?xml version="1.0" standalone="no"?>
<!DOCTYPE svg PUBLIC "-//W3C//DTD SVG 20010904//EN"
 "http://www.w3.org/TR/2001/REC-SVG-20010904/DTD/svg10.dtd">
<svg version="1.0" xmlns="http://www.w3.org/2000/svg"
 width="1024.000000pt" height="1024.000000pt" viewBox="0 0 1024.000000 1024.000000"
 preserveAspectRatio="xMidYMid meet">

<g transform="translate(0.000000,1024.000000) scale(0.100000,-0.100000)"
fill="#000000" stroke="none">
<path d="M8090 8201 c-81 -26 -111 -44 -171 -103 -49 -48 -88 -90 -284 -308
-32 -36 -72 -81 -90 -100 -17 -19 -96 -107 -175 -195 -79 -88 -187 -207 -240
-265 -53 -58 -137 -150 -186 -205 l-88 -100 -536 -5 c-527 -5 -536 -6 -605
-29 -194 -65 -332 -168 -476 -356 -60 -78 -282 -353 -429 -530 -281 -338 -361
-454 -400 -574 -19 -59 -22 -86 -18 -163 4 -79 9 -102 35 -153 40 -77 112
-146 188 -182 55 -25 70 -28 173 -28 61 0 112 -2 112 -4 0 -5 -191 -207 -335
-356 -59 -60 -118 -131 -131 -157 -13 -25 -71 -158 -129 -295 -58 -136 -117
-273 -130 -303 -63 -147 -105 -261 -105 -287 0 -39 34 -91 65 -99 14 -4 40 -4
58 -1 18 3 228 92 467 198 l435 193 123 123 123 123 57 -50 c31 -28 86 -65
122 -83 83 -39 213 -49 304 -23 l57 17 57 -51 c109 -98 246 -144 359 -122 88
18 178 67 244 133 l59 59 74 0 c80 0 131 14 196 55 l42 26 86 -31 c174 -63
287 -83 492 -86 228 -3 351 16 556 85 136 45 143 46 163 30 12 -10 67 -32 124
-49 56 -17 199 -63 317 -101 118 -38 225 -69 238 -69 55 0 102 48 102 105 0
54 -43 79 -250 148 -107 36 -223 72 -256 82 l-62 17 25 37 c28 42 26 81 -9
118 -35 37 -79 30 -219 -33 -301 -137 -426 -167 -694 -168 -124 -1 -211 4
-250 12 -174 39 -322 98 -515 206 -382 213 -679 325 -1075 402 -324 63 -355
73 -429 147 -61 62 -81 108 -80 192 0 116 61 207 173 259 41 19 63 21 206 20
180 -1 271 -17 558 -99 231 -65 312 -79 462 -79 217 0 361 46 497 158 70 58
91 97 81 150 -7 37 -48 66 -94 66 -31 0 -49 -9 -97 -49 -68 -57 -117 -83 -192
-105 -76 -21 -184 -32 -179 -18 2 6 38 46 79 89 42 43 186 195 320 338 134
143 301 321 371 395 70 75 136 146 147 160 l19 23 234 -209 c129 -115 295
-261 368 -324 203 -175 310 -267 376 -324 184 -159 219 -182 369 -246 117 -50
246 -85 281 -76 65 16 93 83 60 145 -15 30 -31 38 -140 70 -96 28 -228 93
-289 144 -59 48 -159 132 -381 322 -258 220 -349 300 -547 478 -179 161 -187
170 -169 185 20 18 426 452 606 647 61 66 151 163 201 215 146 153 186 234
185 376 -1 142 -52 258 -153 349 -114 102 -295 142 -438 96z m214 -192 c58
-16 148 -110 165 -172 16 -56 10 -151 -12 -193 -9 -16 -68 -84 -131 -152
l-116 -122 -68 61 c-112 104 -292 281 -292 289 0 4 32 43 71 86 40 44 88 98
108 122 67 80 170 110 275 81z m-484 -531 c52 -50 132 -127 178 -171 l83 -80
-68 -71 c-37 -39 -69 -72 -70 -74 -3 -7 -363 330 -363 339 0 12 124 149 135
149 6 0 53 -41 105 -92z m-201 -352 c92 -84 172 -160 179 -168 14 -17 -13 -48
-303 -353 -89 -93 -190 -201 -226 -240 -93 -102 -188 -203 -369 -394 -8 -9
-128 -135 -265 -281 -138 -146 -263 -277 -278 -293 -32 -31 -19 -32 -212 23
-71 20 -166 45 -210 54 -44 9 -90 19 -103 22 -22 4 -18 10 50 86 40 45 143
156 228 247 85 91 297 319 470 506 173 187 349 376 391 420 41 44 143 154 225
245 82 91 167 184 189 208 22 24 44 50 48 58 4 8 10 14 13 14 3 0 81 -69 173
-154z m-959 -405 c0 -6 -187 -210 -445 -484 l-150 -160 -107 2 c-126 2 -141
-3 -225 -87 -99 -100 -276 -292 -394 -430 -35 -41 -75 -74 -114 -95 -110 -59
-196 -162 -234 -280 -10 -30 -23 -43 -64 -64 -43 -23 -65 -27 -129 -28 -69 0
-80 3 -120 30 -60 43 -88 96 -88 168 0 69 23 120 115 252 58 83 110 148 434
541 63 77 162 198 219 269 58 72 123 149 146 173 90 94 245 175 371 192 58 8
785 9 785 1z m-795 -880 c-3 -6 -16 -16 -28 -22 -21 -11 -21 -10 2 15 23 25
40 29 26 7z m-747 -1131 c77 -75 151 -111 299 -146 l113 -26 -60 -67 c-33 -36
-138 -147 -234 -246 l-173 -180 -54 49 c-30 28 -112 105 -182 173 l-129 123
64 68 c49 53 291 310 293 312 1 0 29 -27 63 -60z m919 -288 c14 -9 -83 -187
-138 -253 -56 -67 -129 -104 -204 -103 -36 0 -73 7 -93 18 -43 22 -114 94
-110 111 2 7 65 78 140 158 l137 144 128 -34 c70 -19 133 -38 140 -41z m360
-153 l123 -59 -26 -57 c-59 -134 -111 -192 -194 -217 -82 -25 -197 9 -236 70
-15 22 -13 26 29 86 24 35 56 84 71 111 74 134 76 136 94 130 9 -3 72 -32 139
-64z m-1742 -97 c33 -37 74 -76 91 -87 32 -19 178 -155 172 -160 -2 -1 -37
-16 -79 -33 -43 -18 -114 -50 -160 -72 -94 -45 -105 -47 -113 -22 -11 33 -65
80 -101 86 -19 4 -35 8 -35 10 0 5 33 81 80 186 21 47 45 102 54 123 8 20 19
37 23 36 4 0 35 -31 68 -67z m2045 -62 c0 -5 -5 -10 -11 -10 -5 0 -7 5 -4 10
3 6 8 10 11 10 2 0 4 -4 4 -10z m-2298 -387 c25 -22 23 -29 -12 -41 -35 -13
-44 -3 -30 32 11 30 17 32 42 9z"/>
<path d="M2438 6024 c-15 -8 -32 -24 -38 -35 -6 -11 -241 -705 -521 -1542
-281 -837 -560 -1668 -620 -1847 -121 -358 -123 -370 -69 -425 l30 -30 3101 0
3101 0 34 37 c24 26 34 47 34 69 0 29 -57 212 -245 789 -35 107 -93 287 -129
400 -69 213 -85 246 -130 268 -35 17 -90 0 -113 -34 -35 -54 -43 -23 253 -929
68 -210 124 -386 124 -393 0 -9 -657 -12 -2930 -12 -1612 0 -2930 2 -2930 5 0
2 88 267 196 587 313 933 507 1510 728 2173 114 341 216 646 228 677 l20 58
938 2 c936 3 939 3 967 24 52 39 56 102 8 150 l-24 24 -993 0 c-857 -1 -997
-3 -1020 -16z"/>
<path d="M3145 3795 c-137 -32 -274 -83 -445 -166 -233 -113 -440 -252 -587
-394 -68 -66 -73 -73 -73 -113 0 -32 6 -49 25 -67 42 -43 74 -34 167 47 202
174 423 312 668 416 101 43 339 116 348 107 6 -6 -12 -26 -194 -215 -146 -152
-168 -185 -169 -258 0 -49 3 -56 37 -88 36 -32 42 -34 109 -34 139 0 502 91
793 199 205 77 206 77 206 146 0 35 -36 75 -67 75 -8 0 -99 -27 -202 -59 -267
-85 -594 -171 -606 -159 -2 2 51 63 118 135 127 137 182 215 199 281 15 60
-15 122 -74 151 -57 27 -124 26 -253 -4z"/>
</g>
</svg>
