<?xml version="1.0" standalone="no"?>
<!DOCTYPE svg PUBLIC "-//W3C//DTD SVG 20010904//EN"
 "http://www.w3.org/TR/2001/REC-SVG-20010904/DTD/svg10.dtd">
<svg version="1.0" xmlns="http://www.w3.org/2000/svg"
 width="1024.000000pt" height="1024.000000pt" viewBox="0 0 1024.000000 1024.000000"
 preserveAspectRatio="xMidYMid meet">

<g transform="translate(0.000000,1024.000000) scale(0.100000,-0.100000)"
fill="#000000" stroke="none">
<path d="M4940 8373 c-19 -2 -83 -13 -143 -24 -595 -110 -995 -514 -1103
-1114 -19 -107 -21 -436 -4 -613 39 -406 150 -765 316 -1020 70 -107 111 -158
236 -290 111 -117 114 -126 104 -260 -9 -110 -40 -229 -75 -285 -27 -41 -32
-44 -137 -76 -238 -73 -539 -182 -627 -228 -28 -14 -29 -14 -23 2 3 9 13 56
22 103 45 252 87 358 211 523 109 148 118 167 118 274 0 79 -3 95 -27 135 -49
85 -140 126 -256 118 -90 -7 -216 -65 -294 -137 l-56 -51 -6 27 c-3 16 -13 73
-21 128 -9 55 -32 188 -51 295 -68 375 -95 459 -171 532 -123 118 -329 100
-419 -37 l-16 -25 -44 49 c-61 68 -130 101 -210 101 -159 0 -268 -93 -281
-241 -5 -48 -9 -59 -21 -54 -44 17 -112 26 -152 20 -192 -29 -283 -214 -206
-421 14 -39 26 -74 26 -78 0 -3 -19 -6 -43 -6 -55 0 -139 -41 -174 -85 -65
-82 -81 -203 -40 -305 12 -30 84 -174 159 -320 75 -146 174 -344 219 -440 129
-272 182 -355 305 -469 l77 -72 -15 -37 c-305 -752 -458 -1152 -500 -1310 -40
-153 -50 -339 -24 -456 74 -332 375 -526 754 -487 362 38 738 229 1090 556 34
32 64 56 66 54 2 -2 13 -65 25 -139 12 -74 26 -152 32 -172 28 -108 178 -124
226 -23 15 32 15 44 -6 187 -46 323 -70 458 -86 482 -24 36 -79 59 -123 51
-28 -5 -60 -29 -137 -104 -344 -335 -638 -527 -927 -607 -127 -35 -309 -44
-393 -19 -197 57 -284 175 -286 390 -1 163 33 269 351 1074 198 503 230 587
230 610 0 31 -36 66 -102 99 -158 78 -258 218 -442 616 -20 42 -99 196 -177
342 -77 146 -143 280 -146 298 -11 67 40 118 102 102 33 -8 59 -46 218 -309
109 -181 138 -222 164 -233 41 -18 80 -4 94 33 13 34 3 60 -166 448 -183 418
-185 423 -185 470 0 77 60 121 120 90 52 -27 73 -68 314 -610 59 -132 116
-248 128 -257 27 -23 80 -23 101 0 27 29 21 65 -44 272 -96 310 -219 750 -219
786 0 46 37 87 79 87 37 0 79 -28 103 -69 19 -34 164 -489 238 -749 40 -140
57 -185 76 -202 31 -28 68 -29 94 -3 23 23 26 84 11 185 -16 99 -19 120 -50
370 -50 406 -50 420 10 454 22 12 31 13 58 1 62 -25 80 -84 161 -540 29 -166
73 -447 85 -551 l6 -56 -91 -73 c-101 -80 -157 -145 -200 -229 -50 -101 -63
-230 -24 -245 38 -15 52 -6 68 40 44 130 152 266 273 344 57 36 83 62 139 140
136 190 216 264 319 296 65 21 108 8 123 -36 13 -36 -7 -81 -85 -185 -137
-185 -189 -304 -233 -540 -45 -242 -92 -348 -198 -448 -29 -26 -56 -55 -61
-65 -21 -40 -328 -1552 -338 -1664 -6 -74 2 -93 46 -109 31 -12 74 4 95 36 14
21 146 544 305 1205 42 174 82 316 97 348 74 148 291 269 754 420 102 34 219
71 260 83 41 12 91 30 111 41 42 23 87 89 118 173 28 75 61 239 61 305 0 28 3
50 6 50 3 0 26 -14 50 -31 69 -47 200 -105 294 -130 114 -30 262 -30 375 0 82
22 213 80 296 131 l46 28 17 -121 c33 -233 103 -383 196 -419 25 -9 127 -42
228 -73 251 -76 433 -145 587 -220 146 -72 206 -118 263 -205 37 -55 46 -84
122 -397 172 -706 290 -1166 305 -1189 31 -48 100 -53 130 -11 8 12 15 38 15
58 0 42 -192 1002 -301 1509 l-40 185 -63 61 c-103 100 -152 207 -191 420 -14
76 -35 171 -46 209 -29 97 -107 244 -185 350 -85 114 -109 164 -93 199 17 37
57 50 110 36 103 -28 198 -113 320 -286 69 -97 88 -116 153 -157 123 -78 219
-199 271 -339 16 -44 20 -47 44 -42 40 10 46 21 45 82 -2 76 -49 189 -114 269
-28 34 -89 92 -136 129 l-86 67 7 71 c8 90 94 600 135 809 43 218 62 260 128
273 25 5 36 1 58 -21 27 -27 27 -27 21 -134 -6 -99 -38 -377 -71 -621 -8 -58
-17 -128 -21 -157 -7 -47 -5 -54 18 -77 15 -14 37 -26 50 -26 55 0 63 18 173
384 119 397 179 580 202 615 34 52 105 59 143 15 38 -44 34 -69 -85 -482 -63
-218 -126 -433 -140 -477 -14 -44 -26 -94 -26 -111 0 -38 27 -64 66 -64 58 0
35 -43 310 569 71 158 129 275 146 291 74 74 171 17 154 -90 -3 -22 -60 -163
-125 -313 -253 -580 -241 -549 -220 -588 17 -32 55 -42 92 -24 26 12 60 62
172 251 77 130 155 249 173 265 42 37 83 38 111 3 41 -52 30 -90 -80 -299 -55
-104 -157 -305 -226 -445 -160 -326 -187 -371 -277 -467 -58 -61 -93 -89 -151
-119 -43 -21 -83 -47 -91 -58 -31 -44 -34 -32 208 -641 106 -266 262 -677 298
-785 86 -261 73 -469 -36 -590 -166 -183 -570 -153 -949 71 -168 99 -342 237
-540 430 -134 130 -161 144 -228 115 -50 -20 -73 -63 -85 -159 -6 -45 -25
-170 -42 -277 -17 -107 -29 -214 -27 -238 8 -78 80 -124 155 -99 59 20 75 55
102 228 13 85 26 157 29 161 4 4 40 -23 82 -60 359 -322 700 -498 1055 -542
54 -7 119 -7 191 -1 296 26 499 182 580 447 14 46 18 92 18 209 0 132 -4 163
-29 260 -48 188 -212 621 -506 1336 l-19 47 44 31 c42 30 122 117 179 194 49
67 544 1068 557 1126 35 162 -67 317 -216 329 -30 2 -55 7 -55 10 0 2 11 36
25 74 44 122 30 251 -36 331 -71 86 -212 118 -320 73 -13 -6 -17 2 -22 45 -19
155 -138 257 -290 247 -84 -5 -167 -45 -210 -102 l-31 -42 -56 56 c-41 42 -67
60 -103 70 -70 19 -163 9 -227 -26 -101 -55 -138 -133 -191 -403 -38 -189
-109 -589 -109 -612 0 -7 -22 9 -48 33 -133 124 -309 179 -434 134 -99 -35
-162 -126 -162 -236 -1 -81 32 -152 133 -289 117 -159 157 -254 192 -453 12
-67 24 -135 26 -151 l5 -27 -68 31 c-128 57 -444 169 -608 215 -37 10 -78 28
-91 40 -48 45 -95 228 -95 374 l0 91 93 97 c116 121 170 186 236 285 230 343
354 866 338 1422 -6 203 -23 311 -73 461 -170 514 -601 842 -1186 904 -89 9
-284 11 -358 3z m480 -279 c498 -109 816 -460 881 -971 17 -133 6 -478 -20
-650 -49 -325 -135 -582 -256 -763 -159 -240 -489 -514 -718 -598 -62 -23 -88
-26 -187 -26 -105 0 -122 3 -198 31 -266 101 -614 414 -764 684 -88 159 -155
386 -199 674 -26 169 -37 524 -19 662 33 263 144 496 319 668 198 195 458 300
776 314 166 7 272 0 385 -25z"/>
<path d="M2605 7818 c-36 -21 -46 -41 -42 -90 3 -40 13 -58 63 -120 124 -154
266 -319 284 -328 34 -18 87 -12 117 14 23 20 28 32 28 68 0 28 -7 53 -20 69
-66 86 -310 371 -328 384 -25 18 -74 19 -102 3z"/>
<path d="M7545 7821 c-23 -10 -78 -72 -245 -276 -108 -131 -115 -142 -115
-183 0 -36 5 -48 28 -68 34 -29 80 -31 120 -6 32 20 325 367 338 400 35 88
-41 167 -126 133z"/>
<path d="M2108 7250 c-27 -27 -30 -36 -25 -72 8 -56 32 -76 167 -138 63 -29
178 -81 255 -116 77 -35 148 -64 158 -64 68 0 113 77 83 142 -18 37 -52 55
-385 208 -177 81 -207 85 -253 40z"/>
<path d="M7800 7174 c-124 -58 -241 -112 -261 -120 -89 -37 -81 -169 12 -189
21 -5 53 4 121 34 198 85 439 199 457 215 40 36 29 130 -17 155 -43 23 -88 10
-312 -95z"/>
</g>
</svg>
